<svg id="visual" viewBox="0 0 960 540" width="960" height="540" xmlns="http://www.w3.org/2000/svg" xmlns:xlink="http://www.w3.org/1999/xlink" version="1.1"><rect x="0" y="0" width="960" height="540" fill="#ffffff"></rect><defs><linearGradient id="grad1_0" x1="43.8%" y1="100%" x2="100%" y2="0%"><stop offset="14.444444444444446%" stop-color="#bfc7f8" stop-opacity="1"></stop><stop offset="85.55555555555554%" stop-color="#bfc7f8" stop-opacity="1"></stop></linearGradient></defs><defs><linearGradient id="grad1_1" x1="43.8%" y1="100%" x2="100%" y2="0%"><stop offset="14.444444444444446%" stop-color="#bfc7f8" stop-opacity="1"></stop><stop offset="85.55555555555554%" stop-color="#ccd2fa" stop-opacity="1"></stop></linearGradient></defs><defs><linearGradient id="grad1_2" x1="43.8%" y1="100%" x2="100%" y2="0%"><stop offset="14.444444444444446%" stop-color="#d9ddfb" stop-opacity="1"></stop><stop offset="85.55555555555554%" stop-color="#ccd2fa" stop-opacity="1"></stop></linearGradient></defs><defs><linearGradient id="grad1_3" x1="43.8%" y1="100%" x2="100%" y2="0%"><stop offset="14.444444444444446%" stop-color="#d9ddfb" stop-opacity="1"></stop><stop offset="85.55555555555554%" stop-color="#e6e8fc" stop-opacity="1"></stop></linearGradient></defs><defs><linearGradient id="grad1_4" x1="43.8%" y1="100%" x2="100%" y2="0%"><stop offset="14.444444444444446%" stop-color="#f3f4fe" stop-opacity="1"></stop><stop offset="85.55555555555554%" stop-color="#e6e8fc" stop-opacity="1"></stop></linearGradient></defs><defs><linearGradient id="grad1_5" x1="43.8%" y1="100%" x2="100%" y2="0%"><stop offset="14.444444444444446%" stop-color="#f3f4fe" stop-opacity="1"></stop><stop offset="85.55555555555554%" stop-color="#ffffff" stop-opacity="1"></stop></linearGradient></defs><defs><linearGradient id="grad2_0" x1="0%" y1="100%" x2="56.3%" y2="0%"><stop offset="14.444444444444446%" stop-color="#bfc7f8" stop-opacity="1"></stop><stop offset="85.55555555555554%" stop-color="#bfc7f8" stop-opacity="1"></stop></linearGradient></defs><defs><linearGradient id="grad2_1" x1="0%" y1="100%" x2="56.3%" y2="0%"><stop offset="14.444444444444446%" stop-color="#ccd2fa" stop-opacity="1"></stop><stop offset="85.55555555555554%" stop-color="#bfc7f8" stop-opacity="1"></stop></linearGradient></defs><defs><linearGradient id="grad2_2" x1="0%" y1="100%" x2="56.3%" y2="0%"><stop offset="14.444444444444446%" stop-color="#ccd2fa" stop-opacity="1"></stop><stop offset="85.55555555555554%" stop-color="#d9ddfb" stop-opacity="1"></stop></linearGradient></defs><defs><linearGradient id="grad2_3" x1="0%" y1="100%" x2="56.3%" y2="0%"><stop offset="14.444444444444446%" stop-color="#e6e8fc" stop-opacity="1"></stop><stop offset="85.55555555555554%" stop-color="#d9ddfb" stop-opacity="1"></stop></linearGradient></defs><defs><linearGradient id="grad2_4" x1="0%" y1="100%" x2="56.3%" y2="0%"><stop offset="14.444444444444446%" stop-color="#e6e8fc" stop-opacity="1"></stop><stop offset="85.55555555555554%" stop-color="#f3f4fe" stop-opacity="1"></stop></linearGradient></defs><defs><linearGradient id="grad2_5" x1="0%" y1="100%" x2="56.3%" y2="0%"><stop offset="14.444444444444446%" stop-color="#ffffff" stop-opacity="1"></stop><stop offset="85.55555555555554%" stop-color="#f3f4fe" stop-opacity="1"></stop></linearGradient></defs><g transform="translate(960, 540)"><path d="M-540 0C-510 -25.7 -480 -51.4 -453.3 -71.8C-426.7 -92.2 -403.3 -107.3 -396.6 -128.9C-389.9 -150.4 -400 -178.4 -397.4 -202.5C-394.8 -226.5 -379.6 -246.5 -360 -261.6C-340.4 -276.6 -316.4 -286.6 -296.3 -296.3C-276.1 -306 -259.9 -315.4 -254.5 -350.3C-249.1 -385.3 -254.7 -445.8 -238.8 -468.7C-222.9 -491.6 -185.7 -476.9 -157.3 -484.1C-128.9 -491.3 -109.2 -520.4 -84.5 -533.4C-59.7 -546.3 -29.9 -543.2 0 -540L0 0Z" fill="#f9f9fe"></path><path d="M-450 0C-425 -21.4 -400 -42.8 -377.8 -59.8C-355.6 -76.8 -336.1 -89.4 -330.5 -107.4C-324.9 -125.4 -333.3 -148.7 -331.2 -168.7C-329 -188.8 -316.3 -205.5 -300 -218C-283.7 -230.5 -263.7 -238.8 -246.9 -246.9C-230.1 -255 -216.6 -262.8 -212.1 -291.9C-207.6 -321 -212.2 -371.5 -199 -390.6C-185.8 -409.6 -154.8 -397.4 -131.1 -403.4C-107.4 -409.4 -91 -433.7 -70.4 -444.5C-49.8 -455.3 -24.9 -452.6 0 -450L0 0Z" fill="#eceefd"></path><path d="M-360 0C-340 -17.1 -320 -34.3 -302.2 -47.9C-284.4 -61.5 -268.8 -71.5 -264.4 -85.9C-259.9 -100.3 -266.6 -119 -264.9 -135C-263.2 -151 -253.1 -164.4 -240 -174.4C-226.9 -184.4 -210.9 -191.1 -197.5 -197.5C-184.1 -204 -173.3 -210.2 -169.7 -233.5C-166.1 -256.8 -169.8 -297.2 -159.2 -312.4C-148.6 -327.7 -123.8 -317.9 -104.9 -322.7C-85.9 -327.5 -72.8 -346.9 -56.3 -355.6C-39.8 -364.2 -19.9 -362.1 0 -360L0 0Z" fill="#e0e3fc"></path><path d="M-270 0C-255 -12.9 -240 -25.7 -226.7 -35.9C-213.3 -46.1 -201.6 -53.6 -198.3 -64.4C-195 -75.2 -200 -89.2 -198.7 -101.2C-197.4 -113.3 -189.8 -123.3 -180 -130.8C-170.2 -138.3 -158.2 -143.3 -148.1 -148.1C-138.1 -153 -129.9 -157.7 -127.3 -175.2C-124.6 -192.6 -127.3 -222.9 -119.4 -234.3C-111.5 -245.8 -92.9 -238.4 -78.6 -242C-64.4 -245.6 -54.6 -260.2 -42.2 -266.7C-29.9 -273.2 -14.9 -271.6 0 -270L0 0Z" fill="#d3d7fa"></path><path d="M-180 0C-170 -8.6 -160 -17.1 -151.1 -23.9C-142.2 -30.7 -134.4 -35.8 -132.2 -43C-130 -50.1 -133.3 -59.5 -132.5 -67.5C-131.6 -75.5 -126.5 -82.2 -120 -87.2C-113.5 -92.2 -105.5 -95.5 -98.8 -98.8C-92 -102 -86.6 -105.1 -84.8 -116.8C-83 -128.4 -84.9 -148.6 -79.6 -156.2C-74.3 -163.9 -61.9 -159 -52.4 -161.4C-43 -163.8 -36.4 -173.5 -28.2 -177.8C-19.9 -182.1 -10 -181.1 0 -180L0 0Z" fill="#c6ccf9"></path><path d="M-90 0C-85 -4.3 -80 -8.6 -75.6 -12C-71.1 -15.4 -67.2 -17.9 -66.1 -21.5C-65 -25.1 -66.7 -29.7 -66.2 -33.7C-65.8 -37.8 -63.3 -41.1 -60 -43.6C-56.7 -46.1 -52.7 -47.8 -49.4 -49.4C-46 -51 -43.3 -52.6 -42.4 -58.4C-41.5 -64.2 -42.4 -74.3 -39.8 -78.1C-37.2 -81.9 -31 -79.5 -26.2 -80.7C-21.5 -81.9 -18.2 -86.7 -14.1 -88.9C-10 -91.1 -5 -90.5 0 -90L0 0Z" fill="#bfc7f8"></path></g><g transform="translate(0, 0)"><path d="M540 0C471.5 18.3 403 36.5 403 63.8C403 91.1 471.4 127.4 497.4 161.6C523.4 195.8 506.9 228 476.7 242.9C446.5 257.8 402.5 255.5 392.4 285.1C382.2 314.6 405.9 376 376.9 376.9C347.9 377.8 266.3 318.2 241.6 332.5C216.8 346.8 249 435 245.2 481.1C241.3 527.3 201.6 531.4 165.3 508.8C129.1 486.2 96.3 436.8 69.3 437.5C42.3 438.3 21.2 489.1 0 540L0 0Z" fill="#f9f9fe"></path><path d="M450 0C392.9 15.2 335.8 30.5 335.8 53.2C335.8 75.9 392.8 106.2 414.5 134.7C436.2 163.2 422.4 190 397.2 202.4C372.1 214.8 335.4 212.9 327 237.6C318.5 262.2 338.2 313.3 314.1 314.1C289.9 314.8 221.9 265.2 201.3 277.1C180.7 289 207.5 362.5 204.3 401C201.1 439.4 168 442.9 137.8 424C107.5 405.2 80.2 364 57.8 364.6C35.3 365.2 17.6 407.6 0 450L0 0Z" fill="#eceefd"></path><path d="M360 0C314.3 12.2 268.7 24.4 268.7 42.6C268.6 60.7 314.3 84.9 331.6 107.7C348.9 130.6 337.9 152 317.8 161.9C297.6 171.9 268.4 170.4 261.6 190.1C254.8 209.7 270.6 250.7 251.3 251.3C231.9 251.9 177.5 212.1 161.1 221.7C144.6 231.2 166 290 163.4 320.8C160.9 351.5 134.4 354.3 110.2 339.2C86 324.1 64.2 291.2 46.2 291.7C28.2 292.2 14.1 326.1 0 360L0 0Z" fill="#e0e3fc"></path><path d="M270 0C235.7 9.1 201.5 18.3 201.5 31.9C201.5 45.6 235.7 63.7 248.7 80.8C261.7 97.9 253.5 114 238.3 121.4C223.2 128.9 201.3 127.8 196.2 142.5C191.1 157.3 202.9 188 188.4 188.4C174 188.9 133.2 159.1 120.8 166.3C108.4 173.4 124.5 217.5 122.6 240.6C120.7 263.7 100.8 265.7 82.7 254.4C64.5 243.1 48.1 218.4 34.7 218.8C21.2 219.1 10.6 244.6 0 270L0 0Z" fill="#d3d7fa"></path><path d="M180 0C157.2 6.1 134.3 12.2 134.3 21.3C134.3 30.4 157.1 42.5 165.8 53.9C174.5 65.3 169 76 158.9 81C148.8 85.9 134.2 85.2 130.8 95C127.4 104.9 135.3 125.3 125.6 125.6C116 125.9 88.8 106.1 80.5 110.8C72.3 115.6 83 145 81.7 160.4C80.4 175.8 67.2 177.1 55.1 169.6C43 162.1 32.1 145.6 23.1 145.8C14.1 146.1 7.1 163 0 180L0 0Z" fill="#c6ccf9"></path><path d="M90 0C78.6 3 67.2 6.1 67.2 10.6C67.2 15.2 78.6 21.2 82.9 26.9C87.2 32.6 84.5 38 79.4 40.5C74.4 43 67.1 42.6 65.4 47.5C63.7 52.4 67.6 62.7 62.8 62.8C58 63 44.4 53 40.3 55.4C36.1 57.8 41.5 72.5 40.9 80.2C40.2 87.9 33.6 88.6 27.6 84.8C21.5 81 16 72.8 11.6 72.9C7.1 73 3.5 81.5 0 90L0 0Z" fill="#bfc7f8"></path></g></svg>