<svg id="visual" viewBox="0 0 1920 1080" width="1920" height="1080" xmlns="http://www.w3.org/2000/svg" xmlns:xlink="http://www.w3.org/1999/xlink" version="1.1"><rect x="0" y="0" width="1920" height="1080" fill="#fff"></rect><defs><linearGradient id="grad1_0" x1="43.8%" y1="100%" x2="100%" y2="0%"><stop offset="14.444444444444446%" stop-color="#bfc7f8" stop-opacity="1"></stop><stop offset="85.55555555555554%" stop-color="#bfc7f8" stop-opacity="1"></stop></linearGradient></defs><defs><linearGradient id="grad1_1" x1="43.8%" y1="100%" x2="100%" y2="0%"><stop offset="14.444444444444446%" stop-color="#bfc7f8" stop-opacity="1"></stop><stop offset="85.55555555555554%" stop-color="#ccd2fa" stop-opacity="1"></stop></linearGradient></defs><defs><linearGradient id="grad1_2" x1="43.8%" y1="100%" x2="100%" y2="0%"><stop offset="14.444444444444446%" stop-color="#d9ddfb" stop-opacity="1"></stop><stop offset="85.55555555555554%" stop-color="#ccd2fa" stop-opacity="1"></stop></linearGradient></defs><defs><linearGradient id="grad1_3" x1="43.8%" y1="100%" x2="100%" y2="0%"><stop offset="14.444444444444446%" stop-color="#d9ddfb" stop-opacity="1"></stop><stop offset="85.55555555555554%" stop-color="#e6e8fc" stop-opacity="1"></stop></linearGradient></defs><defs><linearGradient id="grad1_4" x1="43.8%" y1="100%" x2="100%" y2="0%"><stop offset="14.444444444444446%" stop-color="#f3f4fe" stop-opacity="1"></stop><stop offset="85.55555555555554%" stop-color="#e6e8fc" stop-opacity="1"></stop></linearGradient></defs><defs><linearGradient id="grad1_5" x1="43.8%" y1="100%" x2="100%" y2="0%"><stop offset="14.444444444444446%" stop-color="#f3f4fe" stop-opacity="1"></stop><stop offset="85.55555555555554%" stop-color="#ffffff" stop-opacity="1"></stop></linearGradient></defs><defs><linearGradient id="grad2_0" x1="0%" y1="100%" x2="56.3%" y2="0%"><stop offset="14.444444444444446%" stop-color="#bfc7f8" stop-opacity="1"></stop><stop offset="85.55555555555554%" stop-color="#bfc7f8" stop-opacity="1"></stop></linearGradient></defs><defs><linearGradient id="grad2_1" x1="0%" y1="100%" x2="56.3%" y2="0%"><stop offset="14.444444444444446%" stop-color="#ccd2fa" stop-opacity="1"></stop><stop offset="85.55555555555554%" stop-color="#bfc7f8" stop-opacity="1"></stop></linearGradient></defs><defs><linearGradient id="grad2_2" x1="0%" y1="100%" x2="56.3%" y2="0%"><stop offset="14.444444444444446%" stop-color="#ccd2fa" stop-opacity="1"></stop><stop offset="85.55555555555554%" stop-color="#d9ddfb" stop-opacity="1"></stop></linearGradient></defs><defs><linearGradient id="grad2_3" x1="0%" y1="100%" x2="56.3%" y2="0%"><stop offset="14.444444444444446%" stop-color="#e6e8fc" stop-opacity="1"></stop><stop offset="85.55555555555554%" stop-color="#d9ddfb" stop-opacity="1"></stop></linearGradient></defs><defs><linearGradient id="grad2_4" x1="0%" y1="100%" x2="56.3%" y2="0%"><stop offset="14.444444444444446%" stop-color="#e6e8fc" stop-opacity="1"></stop><stop offset="85.55555555555554%" stop-color="#f3f4fe" stop-opacity="1"></stop></linearGradient></defs><defs><linearGradient id="grad2_5" x1="0%" y1="100%" x2="56.3%" y2="0%"><stop offset="14.444444444444446%" stop-color="#ffffff" stop-opacity="1"></stop><stop offset="85.55555555555554%" stop-color="#f3f4fe" stop-opacity="1"></stop></linearGradient></defs><g transform="translate(1920, 1080)"><path d="M-1080 0C-1045.5 -50.9 -1011.1 -101.9 -997.6 -158C-984.1 -214.1 -991.6 -275.4 -945.4 -307.2C-899.1 -338.9 -799.2 -341.2 -801 -408.1C-802.9 -475 -906.5 -606.6 -873.7 -634.8C-841 -663.1 -671.9 -588.1 -615.2 -615.2C-558.5 -642.3 -614.1 -771.6 -604.8 -832.5C-595.5 -893.4 -521.3 -886 -466.7 -916C-412.1 -945.9 -377.2 -1013.3 -322.6 -992.9C-268.1 -972.5 -193.9 -864.3 -136.9 -864.2C-79.8 -864.1 -39.9 -972.1 0 -1080L0 0Z" fill="#f9f9fe"></path><path d="M-900 0C-871.3 -42.5 -842.5 -84.9 -831.3 -131.7C-820.1 -178.4 -826.3 -229.5 -787.8 -256C-749.3 -282.5 -666 -284.4 -667.5 -340.1C-669 -395.9 -755.4 -505.5 -728.1 -529C-700.8 -552.6 -559.9 -490 -512.7 -512.7C-465.4 -535.3 -511.8 -643 -504 -693.7C-496.3 -744.5 -434.4 -738.3 -388.9 -763.3C-343.4 -788.3 -314.3 -844.4 -268.8 -827.4C-223.4 -810.4 -161.6 -720.3 -114.1 -720.2C-66.5 -720.1 -33.3 -810 0 -900L0 0Z" fill="#eceefd"></path><path d="M-720 0C-697 -34 -674 -67.9 -665 -105.3C-656.1 -142.7 -661.1 -183.6 -630.2 -204.8C-599.4 -226 -532.8 -227.5 -534 -272.1C-535.2 -316.7 -604.3 -404.4 -582.5 -423.2C-560.7 -442 -447.9 -392 -410.1 -410.1C-372.3 -428.2 -409.4 -514.4 -403.2 -555C-397 -595.6 -347.5 -590.7 -311.1 -610.6C-274.7 -630.6 -251.4 -675.5 -215.1 -661.9C-178.7 -648.3 -129.3 -576.2 -91.3 -576.2C-53.2 -576.1 -26.6 -648 0 -720L0 0Z" fill="#e0e3fc"></path><path d="M-540 0C-522.8 -25.5 -505.5 -50.9 -498.8 -79C-492 -107.1 -495.8 -137.7 -472.7 -153.6C-449.6 -169.5 -399.6 -170.6 -400.5 -204.1C-401.4 -237.5 -453.2 -303.3 -436.9 -317.4C-420.5 -331.5 -336 -294 -307.6 -307.6C-279.2 -321.2 -307.1 -385.8 -302.4 -416.2C-297.8 -446.7 -260.6 -443 -233.4 -458C-206.1 -473 -188.6 -506.7 -161.3 -496.5C-134 -486.3 -97 -432.2 -68.4 -432.1C-39.9 -432.1 -20 -486 0 -540L0 0Z" fill="#d3d7fa"></path><path d="M-360 0C-348.5 -17 -337 -34 -332.5 -52.7C-328 -71.4 -330.5 -91.8 -315.1 -102.4C-299.7 -113 -266.4 -113.7 -267 -136C-267.6 -158.3 -302.2 -202.2 -291.2 -211.6C-280.3 -221 -224 -196 -205.1 -205.1C-186.2 -214.1 -204.7 -257.2 -201.6 -277.5C-198.5 -297.8 -173.8 -295.3 -155.6 -305.3C-137.4 -315.3 -125.7 -337.8 -107.5 -331C-89.4 -324.2 -64.6 -288.1 -45.6 -288.1C-26.6 -288 -13.3 -324 0 -360L0 0Z" fill="#c6ccf9"></path><path d="M-180 0C-174.3 -8.5 -168.5 -17 -166.3 -26.3C-164 -35.7 -165.3 -45.9 -157.6 -51.2C-149.9 -56.5 -133.2 -56.9 -133.5 -68C-133.8 -79.2 -151.1 -101.1 -145.6 -105.8C-140.2 -110.5 -112 -98 -102.5 -102.5C-93.1 -107.1 -102.4 -128.6 -100.8 -138.7C-99.3 -148.9 -86.9 -147.7 -77.8 -152.7C-68.7 -157.7 -62.9 -168.9 -53.8 -165.5C-44.7 -162.1 -32.3 -144.1 -22.8 -144C-13.3 -144 -6.7 -162 0 -180L0 0Z" fill="#bfc7f8"></path></g><g transform="translate(0, 0)"><path d="M1080 0C971.9 39.1 863.8 78.3 858.3 135.9C852.8 193.6 949.9 269.8 924.4 300.4C899 330.9 751 315.7 747.6 380.9C744.1 446.1 885.1 591.5 873.7 634.8C862.4 678.1 698.7 619.1 622.3 622.3C545.9 625.4 556.8 690.6 546.6 752.4C536.5 814.2 505.3 872.6 462.2 907C419 941.5 363.9 951.8 310.9 956.8C257.8 961.7 206.8 961.1 155.3 980.8C103.9 1000.4 51.9 1040.2 0 1080L0 0Z" fill="#f9f9fe"></path><path d="M900 0C809.9 32.6 719.8 65.2 715.3 113.3C710.7 161.3 791.6 224.9 770.4 250.3C749.2 275.7 625.9 263.1 623 317.4C620.1 371.7 737.6 493 728.1 529C718.7 565.1 582.2 515.9 518.5 518.5C454.9 521.1 464 575.5 455.5 627C447.1 678.5 421.1 727.2 385.1 755.9C349.2 784.5 303.3 793.2 259.1 797.3C214.8 801.4 172.3 801 129.4 817.3C86.6 833.7 43.3 866.8 0 900L0 0Z" fill="#eceefd"></path><path d="M720 0C647.9 26.1 575.9 52.2 572.2 90.6C568.5 129.1 633.2 179.9 616.3 200.2C599.3 220.6 500.7 210.5 498.4 253.9C496.1 297.4 590.1 394.4 582.5 423.2C574.9 452.1 465.8 412.8 414.8 414.8C363.9 416.9 371.2 460.4 364.4 501.6C357.7 542.8 336.9 581.8 308.1 604.7C279.3 627.6 242.6 634.6 207.2 637.8C171.9 641.1 137.9 640.8 103.6 653.8C69.2 666.9 34.6 693.5 0 720L0 0Z" fill="#e0e3fc"></path><path d="M540 0C486 19.6 431.9 39.1 429.2 68C426.4 96.8 474.9 134.9 462.2 150.2C449.5 165.4 375.5 157.9 373.8 190.4C372 223 442.5 295.8 436.9 317.4C431.2 339 349.3 309.6 311.1 311.1C272.9 312.7 278.4 345.3 273.3 376.2C268.3 407.1 252.7 436.3 231.1 453.5C209.5 470.7 182 475.9 155.4 478.4C128.9 480.8 103.4 480.6 77.7 490.4C51.9 500.2 26 520.1 0 540L0 0Z" fill="#d3d7fa"></path><path d="M360 0C324 13 287.9 26.1 286.1 45.3C284.3 64.5 316.6 89.9 308.1 100.1C299.7 110.3 250.3 105.2 249.2 127C248 148.7 295 197.2 291.2 211.6C287.5 226 232.9 206.4 207.4 207.4C182 208.5 185.6 230.2 182.2 250.8C178.8 271.4 168.4 290.9 154.1 302.3C139.7 313.8 121.3 317.3 103.6 318.9C85.9 320.6 68.9 320.4 51.8 326.9C34.6 333.5 17.3 346.7 0 360L0 0Z" fill="#c6ccf9"></path><path d="M180 0C162 6.5 144 13 143.1 22.7C142.1 32.3 158.3 45 154.1 50.1C149.8 55.1 125.2 52.6 124.6 63.5C124 74.3 147.5 98.6 145.6 105.8C143.7 113 116.4 103.2 103.7 103.7C91 104.2 92.8 115.1 91.1 125.4C89.4 135.7 84.2 145.4 77 151.2C69.8 156.9 60.7 158.6 51.8 159.5C43 160.3 34.5 160.2 25.9 163.5C17.3 166.7 8.7 173.4 0 180L0 0Z" fill="#bfc7f8"></path></g></svg>