<svg id="visual" viewBox="0 0 640 360" width="640" height="360" xmlns="http://www.w3.org/2000/svg" xmlns:xlink="http://www.w3.org/1999/xlink" version="1.1"><rect x="0" y="0" width="640" height="360" fill="#fff"></rect><defs><linearGradient id="grad1_0" x1="43.8%" y1="100%" x2="100%" y2="0%"><stop offset="14.444444444444446%" stop-color="#bfc7f8" stop-opacity="1"></stop><stop offset="85.55555555555554%" stop-color="#bfc7f8" stop-opacity="1"></stop></linearGradient></defs><defs><linearGradient id="grad1_1" x1="43.8%" y1="100%" x2="100%" y2="0%"><stop offset="14.444444444444446%" stop-color="#bfc7f8" stop-opacity="1"></stop><stop offset="85.55555555555554%" stop-color="#ccd2fa" stop-opacity="1"></stop></linearGradient></defs><defs><linearGradient id="grad1_2" x1="43.8%" y1="100%" x2="100%" y2="0%"><stop offset="14.444444444444446%" stop-color="#d9ddfb" stop-opacity="1"></stop><stop offset="85.55555555555554%" stop-color="#ccd2fa" stop-opacity="1"></stop></linearGradient></defs><defs><linearGradient id="grad1_3" x1="43.8%" y1="100%" x2="100%" y2="0%"><stop offset="14.444444444444446%" stop-color="#d9ddfb" stop-opacity="1"></stop><stop offset="85.55555555555554%" stop-color="#e6e8fc" stop-opacity="1"></stop></linearGradient></defs><defs><linearGradient id="grad1_4" x1="43.8%" y1="100%" x2="100%" y2="0%"><stop offset="14.444444444444446%" stop-color="#f3f4fe" stop-opacity="1"></stop><stop offset="85.55555555555554%" stop-color="#e6e8fc" stop-opacity="1"></stop></linearGradient></defs><defs><linearGradient id="grad1_5" x1="43.8%" y1="100%" x2="100%" y2="0%"><stop offset="14.444444444444446%" stop-color="#f3f4fe" stop-opacity="1"></stop><stop offset="85.55555555555554%" stop-color="#ffffff" stop-opacity="1"></stop></linearGradient></defs><defs><linearGradient id="grad2_0" x1="0%" y1="100%" x2="56.3%" y2="0%"><stop offset="14.444444444444446%" stop-color="#bfc7f8" stop-opacity="1"></stop><stop offset="85.55555555555554%" stop-color="#bfc7f8" stop-opacity="1"></stop></linearGradient></defs><defs><linearGradient id="grad2_1" x1="0%" y1="100%" x2="56.3%" y2="0%"><stop offset="14.444444444444446%" stop-color="#ccd2fa" stop-opacity="1"></stop><stop offset="85.55555555555554%" stop-color="#bfc7f8" stop-opacity="1"></stop></linearGradient></defs><defs><linearGradient id="grad2_2" x1="0%" y1="100%" x2="56.3%" y2="0%"><stop offset="14.444444444444446%" stop-color="#ccd2fa" stop-opacity="1"></stop><stop offset="85.55555555555554%" stop-color="#d9ddfb" stop-opacity="1"></stop></linearGradient></defs><defs><linearGradient id="grad2_3" x1="0%" y1="100%" x2="56.3%" y2="0%"><stop offset="14.444444444444446%" stop-color="#e6e8fc" stop-opacity="1"></stop><stop offset="85.55555555555554%" stop-color="#d9ddfb" stop-opacity="1"></stop></linearGradient></defs><defs><linearGradient id="grad2_4" x1="0%" y1="100%" x2="56.3%" y2="0%"><stop offset="14.444444444444446%" stop-color="#e6e8fc" stop-opacity="1"></stop><stop offset="85.55555555555554%" stop-color="#f3f4fe" stop-opacity="1"></stop></linearGradient></defs><defs><linearGradient id="grad2_5" x1="0%" y1="100%" x2="56.3%" y2="0%"><stop offset="14.444444444444446%" stop-color="#ffffff" stop-opacity="1"></stop><stop offset="85.55555555555554%" stop-color="#f3f4fe" stop-opacity="1"></stop></linearGradient></defs><g transform="translate(640, 360)"><path d="M-360 0C-333 -15.5 -306.1 -31 -297.3 -47.1C-288.5 -63.2 -298 -79.8 -304.3 -98.9C-310.7 -118 -313.9 -139.6 -311 -158.4C-308 -177.3 -298.9 -193.3 -287.2 -208.7C-275.5 -224 -261.3 -238.7 -239 -239C-216.7 -239.3 -186.3 -225.4 -172.2 -237C-158.1 -248.7 -160.3 -286 -146.2 -286.9C-132 -287.8 -101.6 -252.5 -85.6 -263.4C-69.6 -274.4 -68.2 -331.7 -56.3 -355.6C-44.5 -379.4 -22.2 -369.7 0 -360L0 0Z" fill="#f9f9fe"></path><path d="M-300 0C-277.5 -12.9 -255 -25.9 -247.7 -39.2C-240.4 -52.6 -248.3 -66.5 -253.6 -82.4C-258.9 -98.3 -261.6 -116.3 -259.1 -132C-256.7 -147.7 -249.1 -161.1 -239.3 -173.9C-229.6 -186.7 -217.8 -198.9 -199.2 -199.2C-180.6 -199.5 -155.3 -187.8 -143.5 -197.5C-131.8 -207.2 -133.6 -238.3 -121.8 -239.1C-110 -239.9 -84.6 -210.4 -71.3 -219.5C-58 -228.7 -56.8 -276.5 -46.9 -296.3C-37.1 -316.2 -18.5 -308.1 0 -300L0 0Z" fill="#eceefd"></path><path d="M-240 0C-222 -10.3 -204 -20.7 -198.2 -31.4C-192.4 -42.1 -198.7 -53.2 -202.9 -65.9C-207.1 -78.7 -209.3 -93.1 -207.3 -105.6C-205.3 -118.2 -199.3 -128.9 -191.5 -139.1C-183.7 -149.3 -174.2 -159.1 -159.3 -159.3C-144.5 -159.6 -124.2 -150.3 -114.8 -158C-105.4 -165.8 -106.9 -190.6 -97.5 -191.3C-88 -191.9 -67.7 -168.3 -57.1 -175.6C-46.4 -182.9 -45.4 -221.2 -37.5 -237C-29.6 -252.9 -14.8 -246.5 0 -240L0 0Z" fill="#e0e3fc"></path><path d="M-180 0C-166.5 -7.8 -153 -15.5 -148.6 -23.5C-144.3 -31.6 -149 -39.9 -152.2 -49.4C-155.3 -59 -157 -69.8 -155.5 -79.2C-154 -88.6 -149.4 -96.7 -143.6 -104.3C-137.8 -112 -130.7 -119.3 -119.5 -119.5C-108.3 -119.7 -93.2 -112.7 -86.1 -118.5C-79.1 -124.3 -80.2 -143 -73.1 -143.5C-66 -143.9 -50.8 -126.2 -42.8 -131.7C-34.8 -137.2 -34.1 -165.9 -28.2 -177.8C-22.2 -189.7 -11.1 -184.8 0 -180L0 0Z" fill="#d3d7fa"></path><path d="M-120 0C-111 -5.2 -102 -10.3 -99.1 -15.7C-96.2 -21.1 -99.3 -26.6 -101.4 -33C-103.6 -39.3 -104.6 -46.5 -103.7 -52.8C-102.7 -59.1 -99.6 -64.4 -95.7 -69.6C-91.8 -74.7 -87.1 -79.6 -79.7 -79.7C-72.2 -79.8 -62.1 -75.1 -57.4 -79C-52.7 -82.9 -53.4 -95.3 -48.7 -95.6C-44 -95.9 -33.9 -84.2 -28.5 -87.8C-23.2 -91.5 -22.7 -110.6 -18.8 -118.5C-14.8 -126.5 -7.4 -123.2 0 -120L0 0Z" fill="#c6ccf9"></path><path d="M-60 0C-55.5 -2.6 -51 -5.2 -49.5 -7.8C-48.1 -10.5 -49.7 -13.3 -50.7 -16.5C-51.8 -19.7 -52.3 -23.3 -51.8 -26.4C-51.3 -29.5 -49.8 -32.2 -47.9 -34.8C-45.9 -37.3 -43.6 -39.8 -39.8 -39.8C-36.1 -39.9 -31.1 -37.6 -28.7 -39.5C-26.4 -41.4 -26.7 -47.7 -24.4 -47.8C-22 -48 -16.9 -42.1 -14.3 -43.9C-11.6 -45.7 -11.4 -55.3 -9.4 -59.3C-7.4 -63.2 -3.7 -61.6 0 -60L0 0Z" fill="#bfc7f8"></path></g><g transform="translate(0, 0)"><path d="M360 0C338.7 15.6 317.4 31.2 318 50.4C318.7 69.6 341.3 92.4 342.4 111.2C343.4 130.1 322.9 144.8 299.4 152.5C275.9 160.3 249.4 160.9 235.4 171C221.4 181.2 219.9 200.7 208.6 208.6C197.3 216.5 176.1 212.8 168.1 231.4C160.1 250 165.3 290.9 153 300.3C140.7 309.7 111 287.6 90.9 279.6C70.7 271.6 60 277.6 46.5 293.3C32.9 309.1 16.5 334.5 0 360L0 0Z" fill="#f9f9fe"></path><path d="M300 0C282.2 13 264.5 26 265 42C265.6 58 284.4 77 285.3 92.7C286.2 108.4 269.1 120.7 249.5 127.1C229.9 133.6 207.8 134.1 196.2 142.5C184.5 151 183.3 167.2 173.8 173.8C164.4 180.4 146.8 177.3 140.1 192.8C133.4 208.3 137.7 242.4 127.5 250.2C117.3 258.1 92.5 239.7 75.7 233C58.9 226.3 50 231.3 38.7 244.5C27.4 257.6 13.7 278.8 0 300L0 0Z" fill="#eceefd"></path><path d="M240 0C225.8 10.4 211.6 20.8 212 33.6C212.5 46.4 227.6 61.6 228.3 74.2C229 86.7 215.3 96.5 199.6 101.7C183.9 106.8 166.3 107.3 156.9 114C147.6 120.8 146.6 133.8 139.1 139.1C131.5 144.3 117.4 141.9 112.1 154.3C106.7 166.6 110.2 193.9 102 200.2C93.8 206.5 74 191.8 60.6 186.4C47.1 181.1 40 185.1 31 195.6C21.9 206.1 11 223 0 240L0 0Z" fill="#e0e3fc"></path><path d="M180 0C169.3 7.8 158.7 15.6 159 25.2C159.3 34.8 170.7 46.2 171.2 55.6C171.7 65 161.4 72.4 149.7 76.3C137.9 80.1 124.7 80.5 117.7 85.5C110.7 90.6 110 100.3 104.3 104.3C98.6 108.3 88.1 106.4 84.1 115.7C80.1 125 82.6 145.4 76.5 150.1C70.4 154.8 55.5 143.8 45.4 139.8C35.3 135.8 30 138.8 23.2 146.7C16.5 154.5 8.2 167.3 0 180L0 0Z" fill="#d3d7fa"></path><path d="M120 0C112.9 5.2 105.8 10.4 106 16.8C106.2 23.2 113.8 30.8 114.1 37.1C114.5 43.4 107.6 48.3 99.8 50.8C92 53.4 83.1 53.6 78.5 57C73.8 60.4 73.3 66.9 69.5 69.5C65.8 72.2 58.7 70.9 56 77.1C53.4 83.3 55.1 97 51 100.1C46.9 103.2 37 95.9 30.3 93.2C23.6 90.5 20 92.5 15.5 97.8C11 103 5.5 111.5 0 120L0 0Z" fill="#c6ccf9"></path><path d="M60 0C56.4 2.6 52.9 5.2 53 8.4C53.1 11.6 56.9 15.4 57.1 18.5C57.2 21.7 53.8 24.1 49.9 25.4C46 26.7 41.6 26.8 39.2 28.5C36.9 30.2 36.7 33.4 34.8 34.8C32.9 36.1 29.4 35.5 28 38.6C26.7 41.7 27.5 48.5 25.5 50C23.5 51.6 18.5 47.9 15.1 46.6C11.8 45.3 10 46.3 7.7 48.9C5.5 51.5 2.7 55.8 0 60L0 0Z" fill="#bfc7f8"></path></g></svg>